PathFileType	4	(X/Y/Z)	F:\MotionCapture\20160217\3\Generated_files\2_Test01-Dynamic.trc
DataRate	CameraRate	NumFrames	NumMarkers	Units	OrigDataRate	OrigDataStartFrame	OrigNumFrames
120.00	120.00	       8	39	mm	120.00	87	       690
Frame#	Time	Top.Head			Front.Head			Rear.Head			R.Shoulder			R.Offset			R.Elbow			R.Wrist			L.Shoulder			L.Elbow			L.Wrist			R.ASIS			L.ASIS			V.Sacral			R.Thigh			R.Knee			R.Shank			R.Ankle			R.Heel			R.Toe			L.Thigh			L.Knee			L.Shank			L.Ankle			L.Heel			L.Toe			R1			R2			R3			R4			R5			R6			R7			L1			L2			L3			L4			L5			L6			L7			V_Mid_ASIS			V_Pelvis_Origin			V_R.Hip_JC			V_L.Hip_JC			V_R.Knee_JC			V_L.Knee_JC			V_R.Ankle_JC			V_L.Ankle_JC			V_Mid_Hip			V_Mid_Shoulder			V_R.Hand			V_L.Hand			V_R.Toe_Offset_Static			V_L.Toe_Offset_Static			V_R.Toe_Offset			V_L.Toe_Offset			
		X1	Y1	Z1	X2	Y2	Z2	X3	Y3	Z3	X4	Y4	Z4	X5	Y5	Z5	X6	Y6	Z6	X7	Y7	Z7	X8	Y8	Z8	X9	Y9	Z9	X10	Y10	Z10	X11	Y11	Z11	X12	Y12	Z12	X13	Y13	Z13	X14	Y14	Z14	X15	Y15	Z15	X16	Y16	Z16	X17	Y17	Z17	X18	Y18	Z18	X19	Y19	Z19	X20	Y20	Z20	X21	Y21	Z21	X22	Y22	Z22	X23	Y23	Z23	X24	Y24	Z24	X25	Y25	Z25	X26	Y26	Z26	X27	Y27	Z27	X28	Y28	Z28	X29	Y29	Z29	X30	Y30	Z30	X31	Y31	Z31	X32	Y32	Z32	X33	Y33	Z33	X34	Y34	Z34	X35	Y35	Z35	X36	Y36	Z36	X37	Y37	Z37	X38	Y38	Z38	X39	Y39	Z39	

87	0.717	2365.32935	119.38600	1732.39197	2289.78320	38.88234	1647.20105	2455.89404	184.61447	1666.76563	2415.99585	323.31805	1433.84583	2570.53320	65.01109	1279.57117	2416.26758	416.73755	1104.45056	2299.63110	389.42426	872.08380	2427.06738	-85.31979	1430.44824	2421.41699	-168.01390	1099.56970	2316.29077	-132.60864	867.25024	2342.57495	275.76447	961.46722	2346.10693	-14.48630	961.86768	2570.14966	131.31030	952.67255	2329.63794	250.24829	576.98938	2416.30933	302.76932	472.38864	2430.72949	239.82661	237.03050	2501.23535	318.52124	77.50741	2565.13867	257.36270	50.80128	2356.01636	304.71744	46.30314	2314.91650	15.02439	628.22882	2419.92871	-35.64693	474.77386	2412.09790	31.34429	331.08124	2495.73096	-45.03572	73.65078	2556.51025	14.57292	52.35242	2352.08667	-43.67507	46.74119	2305.52759	285.22894	42.71507	2349.71704	267.57419	52.53322	2446.64307	230.81923	59.00251	2522.80151	228.46100	49.56400	2536.66650	302.02521	52.63499	2460.72070	330.81088	43.85490	2394.28418	348.41989	42.51287	2304.62817	-20.90703	40.44795	2340.22290	-5.23406	50.20026	2434.28711	41.23066	52.70396	2519.43896	44.86140	49.99217	2532.10986	-26.46074	53.49961	2458.28857	-56.63349	41.25867	2396.83691	-74.00558	45.03841																																																	2122.84937	318.04044	779.21655	2931.09473	149.93871	-121.59850	3378.01929	179.76021	-182.99239	
88	0.725	2365.47461	119.49332	1732.39697	2287.50391	41.54455	1646.23083	2456.70508	182.89621	1667.28564	2416.01831	323.33597	1433.77979	2570.49243	65.00319	1279.54126	2416.25635	416.74380	1104.36365	2299.28027	389.17621	871.86243	2426.92212	-85.38096	1430.28784	2421.20776	-167.97115	1099.55457	2316.32300	-132.41362	867.15497	2342.31055	275.85687	961.46246	2346.12915	-14.48387	961.79565	2570.09619	131.34666	952.70081	2329.61914	250.22704	576.88605	2416.26758	302.74310	472.34750	2430.73779	239.87701	237.02986	2501.22290	318.47220	77.48106	2565.14233	257.33594	50.77938	2355.97168	304.81232	46.35097	2314.97412	15.14551	628.17645	2419.91040	-35.68512	474.80664	2412.00220	31.31266	330.98022	2495.71411	-44.99691	73.60584	2556.50195	14.59552	52.32579	2352.06982	-43.67493	46.75622	2305.40991	285.32343	42.65579	2349.66797	267.58395	52.50168	2446.53052	230.93907	58.99423	2522.75488	228.45200	49.56666	2536.68384	302.01566	52.60498	2460.62549	330.83417	43.75943	2394.26196	348.44711	42.52541	2304.58594	-20.87399	40.42702	2340.25977	-5.20499	50.13101	2434.04834	41.30245	52.67431	2519.41260	44.88726	49.96476	2532.08398	-26.48818	53.53145	2458.24878	-56.56771	41.20467	2396.80908	-74.04699	45.03044																																																	2123.04785	318.13373	779.05695	2930.77930	149.89655	-121.66981	3378.03589	179.78728	-183.09299	
89	0.733	2364.10986	119.23141	1732.30664	2285.96118	43.14334	1645.57800	2457.75269	180.87822	1667.94458	2416.02271	323.11325	1433.71472	2570.43213	64.97513	1279.48999	2416.19653	416.70096	1104.30420	2299.66357	389.38553	871.82532	2426.80640	-85.56438	1430.13770	2421.05200	-167.94983	1099.41724	2316.24146	-132.31619	867.05286	2342.22070	275.87747	961.50793	2346.09839	-14.48849	961.76953	2570.04932	131.34315	952.67908	2329.56763	250.26361	576.95435	2416.26147	302.72546	472.33188	2430.59326	239.84030	237.06541	2501.22437	318.47238	77.48118	2565.15356	257.33334	50.81967	2355.99805	304.78058	46.32438	2314.88916	15.03807	628.07629	2419.89941	-35.65548	474.83139	2411.89502	31.30065	331.15002	2495.69653	-45.07178	73.64719	2556.52588	14.55375	52.38264	2352.10889	-43.74013	46.83838	2305.42310	285.26962	42.64220	2349.66870	267.64182	52.52513	2446.49707	230.86359	59.01654	2522.76196	228.47476	49.53599	2536.65698	302.00388	52.61280	2460.53516	330.72595	43.80985	2394.17969	348.39157	42.55190	2304.61182	-20.90194	40.41226	2340.22705	-5.22563	50.07594	2434.28394	41.24792	52.68676	2519.38965	44.91628	49.95608	2532.11108	-26.47674	53.51740	2458.29150	-56.61288	41.22938	2396.84912	-74.03261	44.99979																																																	2123.14209	318.04272	778.95941	2930.68555	149.79868	-121.61302	3377.10913	179.74805	-182.89516	1791.38391	-125.22745	733.94586	
90	0.742	2363.69043	119.18767	1732.33813	2284.12427	45.67372	1644.90527	2458.84937	178.98747	1668.40271	2416.06958	323.35767	1433.61780	2570.38086	64.94160	1279.43677	2416.17944	416.66995	1104.25720	2299.58179	389.31778	871.66766	2426.72021	-85.88335	1429.81555	2420.94897	-167.91603	1099.17090	2316.04370	-132.22005	866.90332	2342.09717	275.87720	961.47186	2346.05957	-14.49304	961.74487	2569.98242	131.36928	952.67041	2329.52808	250.22511	576.80597	2416.24292	302.78714	472.37979	2430.66260	239.79962	237.05670	2503.26855	320.61487	79.30267	2565.13770	257.31104	50.82787	2355.95605	304.80338	46.31786	2314.94849	15.06606	628.12750	2419.89575	-35.66623	474.82620	2412.04004	31.34752	331.13080	2495.77246	-45.03386	73.70471	2556.50879	14.60012	52.38782	2352.05029	-43.70105	46.74845	2305.46729	285.24698	42.66126	2349.69775	267.56870	52.52663	2446.42065	230.84244	59.01261	2522.73901	228.38484	49.53926	2536.66724	301.98019	52.64632	2460.58105	330.73111	43.77513	2394.25952	348.41168	42.49660	2304.60425	-20.83939	40.40997	2340.25879	-5.22446	50.11182	2434.11694	41.36313	52.61636	2519.32227	44.87825	49.84348	2532.09180	-26.47065	53.50716	2458.27026	-56.59309	41.21527	2396.83008	-74.05444	44.96466																																																	2931.34961	149.74200	-121.68159	3377.33691	179.74869	-182.82541	1791.52002	-125.15112	733.94104	
91	0.750	2363.36792	119.06785	1732.26074	2282.06812	47.63446	1644.37927	2459.78320	177.23579	1668.85535	2416.11523	323.30453	1433.60730	2570.34717	64.92132	1279.39526	2416.14478	416.69128	1104.24658	2299.48535	389.26328	871.55109	2426.55811	-85.82595	1429.63843	2420.81934	-167.75331	1098.86084	2315.77417	-132.18068	866.72418	2342.20117	275.81522	961.42981	2345.96313	-14.50748	961.72253	2569.87109	131.43599	952.71033	2329.41479	250.33174	576.80719	2416.22656	302.71420	472.31107	2430.71997	239.75452	237.02299	2501.32788	318.57385	77.66001	2565.13379	257.30081	50.79867	2355.94824	304.82724	46.32063	2314.80542	15.07283	628.08521	2419.91431	-35.67774	474.78967	2411.95532	31.22373	331.01059	2495.79321	-44.96805	73.73593	2556.47925	14.69228	52.37151	2352.14282	-43.69550	46.76591	2305.41504	285.23337	42.65175	2349.71313	267.64774	52.50046	2446.49976	230.86797	58.98506	2522.72437	228.39304	49.55782	2536.62817	301.98792	52.61583	2460.60278	330.81494	43.86322	2394.26440	348.42398	42.56732	2304.52344	-20.88311	40.36883	2340.18164	-5.17600	49.94281	2434.10498	41.34262	52.61124	2519.27100	44.89463	49.82227	2532.09277	-26.46409	53.52172	2458.20508	-56.48743	41.17277	2396.82739	-74.06667	44.92542																																																	2123.28052	317.98849	778.88159	2931.39380	149.87151	-121.81057	3377.52173	179.73294	-182.87376	1792.00403	-125.07076	733.74158	
92	0.758	2363.15942	119.00699	1732.22632	2279.77197	49.95846	1643.88477	2460.71460	175.27049	1669.19214	2416.12329	323.28476	1433.55273	2570.29517	64.91702	1279.36475	2416.04956	416.61838	1104.17444	2299.36694	389.11856	871.46338	2426.52148	-86.05975	1429.45471	2420.68311	-167.62474	1098.53918	2315.46802	-132.02470	866.49982	2342.00903	275.85382	961.38983	2345.92651	-14.49792	961.60986	2569.77588	131.52361	952.73877	2329.33789	250.34880	576.72534	2416.23901	302.75381	472.33704	2430.54370	239.72081	237.02916	2501.32324	318.57172	77.67687	2565.14307	257.31897	50.80193	2355.90527	304.80563	46.25897	2314.79736	15.07157	628.09357	2419.94165	-35.68345	474.83487	2411.79614	31.24352	330.98059	2495.75977	-44.99307	73.66452	2556.48413	14.68428	52.40310	2352.11401	-43.70769	46.70557	2305.39966	285.28052	42.68253	2349.66113	267.62323	52.50158	2446.47290	230.92032	58.98072	2522.75464	228.41026	49.51164	2536.63672	301.96518	52.59832	2460.61572	330.80750	43.86468	2394.19922	348.40729	42.50052	2304.48608	-20.84407	40.33117	2340.22754	-5.18776	50.01627	2433.88867	41.30984	52.61629	2519.27930	44.91811	49.86286	2532.08423	-26.46886	53.51249	2458.25586	-56.58180	41.19175	2396.83081	-74.04906	44.89087																																																	2123.22388	317.89087	778.83142	2931.42749	149.65431	-121.85867	3377.42065	179.74915	-182.84760	1792.11707	-125.09146	733.65210	
93	0.767	2362.89111	118.93170	1732.13843	2278.66528	52.16125	1643.27368	2461.67993	173.10359	1669.56665	2416.16138	323.13330	1433.48206	2570.26172	64.91450	1279.32751	2415.97754	416.58243	1104.12378	2299.05884	388.98239	871.38098	2426.51709	-86.34940	1429.34521	2420.52515	-167.59825	1098.39197	2315.07202	-131.86586	866.28766	2342.00073	275.81201	961.38623	2345.91895	-14.47994	961.51324	2569.67798	131.54962	952.76611	2329.24487	250.38226	576.64191	2416.22949	302.68604	472.27277	2430.51978	239.79230	237.02078	2503.26978	320.59793	79.30807	2565.16504	257.26318	50.82542	2355.89771	304.84430	46.27332	2314.71826	15.03191	628.02502	2419.85181	-35.62324	474.81195	2411.85400	31.21663	330.98978	2495.66602	-44.94043	73.58720	2556.47461	14.69054	52.40950	2352.07861	-43.66278	46.66817	2305.40381	285.26279	42.63963	2349.63818	267.62500	52.41599	2446.41113	230.91475	58.92778	2522.75732	228.32857	49.50375	2536.65454	301.97678	52.61483	2460.64697	330.73929	43.87941	2394.21973	348.40897	42.44757	2304.31958	-20.40085	40.37674	2340.08740	-4.90885	49.93938	2434.03589	41.37413	52.66055	2519.22046	44.92937	49.79643	2532.08789	-26.45288	53.52871	2458.21460	-56.48223	41.16728	2396.85303	-74.09185	44.89598																																																	2123.33789	317.87311	778.86652	2931.16040	149.81267	-121.68336	3377.56836	179.69591	-182.96007	1791.69421	-125.04436	733.58301	
94	0.775	2363.20972	119.08366	1732.26770	2276.87622	54.50533	1642.91956	2462.56738	171.31667	1669.99280	2416.24927	323.07367	1433.44641	2570.14478	64.84927	1279.30212	2415.93652	416.49353	1104.09082	2298.95483	388.75833	871.40686	2426.34204	-86.35123	1429.25977	2420.21997	-167.57149	1098.21045	2314.80786	-131.67479	866.16687	2341.97754	275.85413	961.37744	2345.81152	-14.44531	961.46027	2569.56616	131.63507	952.81940	2329.14673	250.40633	576.61316	2416.22266	302.73987	472.31165	2430.61011	239.80602	237.02759	2501.30835	318.52756	77.65991	2565.15405	257.26093	50.86439	2355.94800	304.80734	46.32275	2314.70068	14.98178	628.04449	2419.82520	-35.63488	474.78409	2412.13818	31.30124	330.91876	2495.70825	-44.99835	73.67210	2556.47363	14.70374	52.41483	2352.09790	-43.71228	46.72464	2305.40356	285.25696	42.63186	2349.68726	267.60681	52.43310	2446.44165	230.79404	59.02221	2522.75024	228.34496	49.56953	2536.64551	301.95203	52.61707	2460.57324	330.75952	43.77035	2394.18408	348.42950	42.44148	2304.33081	-20.37797	40.38443	2340.12964	-4.91691	49.93937	2433.94189	41.24223	52.62772	2519.22412	44.90564	49.84310	2532.09180	-26.46139	53.54627	2458.25293	-56.54140	41.19043	2396.82739	-74.09140	44.89941																																																	2930.76416	149.63760	-121.60148	3377.36255	179.75839	-182.83272	
